<?xml version="1.0" encoding="UTF-8"?>
<svg width="53px" height="19px" viewBox="0 0 53 19" version="1.1" xmlns="http://www.w3.org/2000/svg" xmlns:xlink="http://www.w3.org/1999/xlink">
    <!-- Generator: Sketch 49.1 (51147) - http://www.bohemiancoding.com/sketch -->
    <title>Shape</title>
    <desc>Created with Sketch.</desc>
    <defs></defs>
    <g id="Page-1" stroke="none" stroke-width="1" fill="none" fill-rule="evenodd">
        <g id="arrow" fill="#000000" fill-rule="nonzero">
            <path d="M52.9751756,9.64191331 C52.9771616,9.63066561 52.9771616,9.61941791 52.9791475,9.60817021 C52.9851054,9.57135956 53,9.53761645 53,9.49978328 C53,9.46195011 52.9841124,9.42820701 52.9791475,9.39139635 C52.9771616,9.38014865 52.9771616,9.36992347 52.9751756,9.35765325 C52.9731897,9.34538303 52.9682248,9.33515785 52.9652459,9.32391015 C52.9533302,9.27380676 52.9453864,9.22268084 52.9255269,9.17666752 C52.923541,9.16746486 52.922548,9.15723968 52.9175831,9.14905953 L48.5425386,0.415731473 C48.3538735,0.0394447708 47.9040562,-0.10882037 47.5386417,0.0854580903 C47.1732272,0.279736551 47.0292459,0.741914783 47.217911,1.11820149 L51.032918,8.73289462 L0.744730679,8.73289462 C0.333639344,8.73289462 0,9.07646074 0,9.49978328 C0,9.92310582 0.333639344,10.2666719 0.744730679,10.2666719 L51.032918,10.2666719 L47.217911,17.8813651 C47.0302389,18.2576518 47.1732272,18.71983 47.5386417,18.915131 C47.6478689,18.9734145 47.7650398,19 47.8792319,19 C48.1493208,19 48.4094801,18.8486673 48.5425386,18.5848576 L52.9175831,9.85152955 C52.922548,9.84232688 52.923541,9.8321017 52.9255269,9.82289904 C52.9463794,9.77790823 52.9533302,9.72678232 52.9652459,9.67667893 C52.9682248,9.66543123 52.9731897,9.65418353 52.9751756,9.64191331 Z" id="Shape"></path>
        </g>
    </g>
</svg>