<?xml version="1.0" encoding="UTF-8"?>
<svg width="27px" height="25px" viewBox="0 0 27 25" version="1.1" xmlns="http://www.w3.org/2000/svg" xmlns:xlink="http://www.w3.org/1999/xlink">
    <!-- Generator: Sketch 49.2 (51160) - http://www.bohemiancoding.com/sketch -->
    <title>settings</title>
    <desc>Created with Sketch.</desc>
    <defs>
        <rect id="path-1" x="0" y="0" width="26.6666667" height="25" rx="2"></rect>
    </defs>
    <g id="Page-3" stroke="none" stroke-width="1" fill="none" fill-rule="evenodd">
        <g id="Desktop-HD-Copy-3" transform="translate(-591.000000, -115.000000)">
            <g id="event-detailed-info" transform="translate(576.000000, 65.000000)">
                <g id="content" transform="translate(0.000000, 35.000000)">
                    <g id="Left-Block" transform="translate(15.000000, 15.000000)">
                        <g id="settings-+-search">
                            <g id="settings">
                                <g id="Rectangle-11">
                                    <use fill="#F9F9F9" fill-rule="evenodd" xlink:href="#path-1"></use>
                                    <rect stroke-opacity="0.246065444" stroke="#153981" stroke-width="1" x="0.5" y="0.5" width="25.6666667" height="24" rx="2"></rect>
                                </g>
                                <g id="noun_40820_cc" transform="translate(5.000000, 6.000000)" fill="#153981" fill-rule="nonzero">
                                    <g id="Group">
                                        <path d="M3.4944578,0.0264528302 C3.14978133,0.0612148182 2.88791458,0.352962138 2.88961909,0.700307278 L2.88961909,1.84585984 L0.764283065,1.84585984 C0.741895646,1.84473616 0.719466182,1.84473616 0.697078763,1.84585984 C0.456980898,1.85789706 0.241525841,1.99745586 0.131873442,2.21196579 C0.0222210428,2.42647572 0.0350301115,2.68334761 0.165475595,2.88582029 C0.295921079,3.08829297 0.524185202,3.20560602 0.764283065,3.19356873 L2.88961909,3.19356873 L2.88961909,4.33912129 C2.88965619,4.71126542 3.19051836,5.01293853 3.5616621,5.01297574 L4.64533145,5.01297574 C5.01647519,5.01293853 5.31733735,4.71126542 5.31737446,4.33912129 L5.31737446,3.19356873 L15.9272535,3.19356873 C16.1696163,3.19700559 16.3950501,3.06932662 16.5172318,2.85942261 C16.6394135,2.6495186 16.6394135,2.38990998 16.5172318,2.18000596 C16.3950501,1.97010195 16.1696163,1.84242299 15.9272535,1.84585984 L5.31737446,1.84585984 L5.31737446,0.700307278 C5.31733735,0.328163156 5.01647519,0.026490039 4.64533145,0.0264528302 L3.5616621,0.0264528302 C3.53927468,0.0253291491 3.51684521,0.0253291491 3.4944578,0.0264528302 Z M12.0462051,4.60866307 C11.6750614,4.60870028 11.3741992,4.9103734 11.3741621,5.28251752 L11.3741621,6.42807008 L0.764283065,6.42807008 C0.521833239,6.4244971 0.296259822,6.55214483 0.173994579,6.76210318 C0.0517293369,6.97206154 0.0517293369,7.23177674 0.173994579,7.44173509 C0.296259822,7.65169344 0.521833239,7.77934118 0.764283065,7.77576819 L11.3741621,7.77576819 L11.3741621,8.92973046 C11.3741992,9.30187458 11.6750614,9.6035477 12.0462051,9.60358491 L13.1298745,9.60358491 C13.5010182,9.6035477 13.8018804,9.30187458 13.8019175,8.92973046 L13.8019175,7.77576819 L15.9272535,7.77576819 C16.1697033,7.77934118 16.3952767,7.65169344 16.517542,7.44173509 C16.6398072,7.23177674 16.6398072,6.97206154 16.517542,6.76210318 C16.3952767,6.55214483 16.1697033,6.4244971 15.9272535,6.42807008 L13.8019175,6.42807008 L13.8019175,5.28251752 C13.8018804,4.9103734 13.5010182,4.60870028 13.1298745,4.60866307 L12.0462051,4.60866307 Z M7.8039336,9.19927224 C7.43278987,9.19930945 7.1319277,9.50098256 7.13189059,9.87312668 L7.13189059,11.0186792 L0.764283065,11.0186792 C0.741895646,11.0175556 0.719466182,11.0175556 0.697078763,11.0186792 C0.456980898,11.0307165 0.241525841,11.1702753 0.131873442,11.3847852 C0.0222210428,11.5992951 0.0350301115,11.856167 0.165475595,12.0586397 C0.295921079,12.2611124 0.524185202,12.3784254 0.764283065,12.3663881 L7.13189059,12.3663881 L7.13189059,13.5119407 C7.1319277,13.8840848 7.43278987,14.1857579 7.8039336,14.1857951 L8.88760296,14.1857951 C9.25874669,14.1857579 9.55960886,13.8840848 9.55964597,13.5119407 L9.55964597,12.3663881 L15.9272535,12.3663881 C16.1696163,12.369825 16.3950501,12.242146 16.5172318,12.032242 C16.6394135,11.822338 16.6394135,11.5627294 16.5172318,11.3528254 C16.3950501,11.1429214 16.1696163,11.0152424 15.9272535,11.0186792 L9.55964597,11.0186792 L9.55964597,9.87312668 C9.56135047,9.52578154 9.29948372,9.23403423 8.95480726,9.19927224 C8.93241984,9.19814856 8.90999038,9.19814856 8.88760296,9.19927224 L7.8039336,9.19927224 Z" id="Shape"></path>
                                    </g>
                                </g>
                            </g>
                        </g>
                    </g>
                </g>
            </g>
        </g>
    </g>
</svg>