<?xml version="1.0" encoding="UTF-8"?>
<svg width="103px" height="19px" viewBox="0 0 103 19" version="1.1" xmlns="http://www.w3.org/2000/svg" xmlns:xlink="http://www.w3.org/1999/xlink">
    <!-- Generator: Sketch 49.2 (51160) - http://www.bohemiancoding.com/sketch -->
    <title>logo 2</title>
    <desc>Created with Sketch.</desc>
    <defs></defs>
    <g id="Page-3" stroke="none" stroke-width="1" fill="none" fill-rule="evenodd">
        <g id="Desktop-HD-Copy" transform="translate(-19.000000, -12.000000)" fill="#FFFFFF" fill-rule="nonzero">
            <g id="Header">
                <g id="logo-2" transform="translate(19.000000, 12.000000)">
                    <g id="Group">
                        <polygon id="right" points="18.2647059 16 23 0 19.1666667 0 13.8 16"></polygon>
                        <polygon id="left" transform="translate(6.764706, 8.000000) scale(-1, 1) translate(-6.764706, -8.000000) " points="8.79411765 16 13.5294118 0 0 0 4.73529412 16"></polygon>
                        <polygon id="accent" fill-opacity="0.506397192" points="11.4098039 16 16.8466231 0 19.1666667 0 13.8 16"></polygon>
                    </g>
                    <path d="M33.0553668,6.18970048 C33.0553668,5.50481354 32.8823798,5.01646669 32.5364007,4.7246453 C32.1904214,4.43282391 31.7057719,4.2869154 31.0824374,4.2869154 L28.6205648,4.2869154 L28.6205648,8.16395167 L31.0824374,8.16395167 C31.7057719,8.16395167 32.1904214,8.00613226 32.5364007,7.69048872 C32.8823798,7.37484516 33.0553668,6.87458743 33.0553668,6.18970048 Z M35.6759315,6.17183396 C35.6759315,7.72622954 35.2985055,8.82500994 34.5436417,9.46820811 C33.7887781,10.1114063 32.7108261,10.4330005 31.3097532,10.4330005 L28.6248538,10.4330005 L28.6248538,15.1676301 L26,15.1676301 L26,2 L31.5070462,2 C32.7765896,2 33.7887781,2.3394606 34.5436417,3.01839201 C35.2985055,3.69732342 35.6759315,4.74846022 35.6759315,6.17183396 Z M42.611207,10.4330005 C42.4568031,10.5342447 42.3009718,10.6161321 42.1437086,10.6786653 C41.9864453,10.7411984 41.7705689,10.7992641 41.4960731,10.8528639 L40.947084,10.9600631 C40.4324042,11.0553517 40.0635559,11.171483 39.8405281,11.3084603 C39.4630962,11.5407264 39.2743831,11.901031 39.2743831,12.3893852 C39.2743831,12.8241395 39.3901843,13.1382895 39.6217902,13.3318444 C39.8533961,13.5253995 40.1350361,13.6221756 40.4667187,13.6221756 C40.9928357,13.6221756 41.4774853,13.4613784 41.9206818,13.1397793 C42.3638783,12.8181802 42.594051,12.2315685 42.611207,11.3799265 L42.611207,10.4330005 Z M41.1272211,9.24487653 C41.5789956,9.18532115 41.9020952,9.11087802 42.0965299,9.02154495 C42.4453684,8.86670094 42.619785,8.62550524 42.619785,8.29795061 C42.619785,7.89892953 42.4868281,7.62349 42.2209102,7.47162376 C41.9549922,7.31975752 41.5646993,7.24382556 41.0500195,7.24382556 C40.4724344,7.24382556 40.063556,7.39271178 39.8233721,7.69048872 C39.6518122,7.91084364 39.5374406,8.20861611 39.480254,8.58381504 L37.1213167,8.58381504 C37.1727848,7.73217302 37.4015279,7.03240773 37.807553,6.48449816 C38.4537621,5.62690061 39.5631664,5.19810825 41.135799,5.19810825 C42.1594399,5.19810825 43.068694,5.40952671 43.8635882,5.83236995 C44.6584826,6.25521319 45.0559239,7.0532434 45.0559239,8.22648451 L45.0559239,12.6931162 C45.0559239,13.0028042 45.0616424,13.3779975 45.0730798,13.8187073 C45.0902356,14.1522176 45.1388436,14.3785245 45.2189049,14.4976354 C45.2989662,14.6167461 45.4190564,14.715011 45.579179,14.792433 L45.579179,15.1676301 L42.9200134,15.1676301 C42.8456708,14.9710974 42.7942035,14.7864784 42.7656102,14.6137677 C42.7370169,14.4410571 42.7141426,14.2445273 42.6969866,14.0241724 C42.3595854,14.4053269 41.970722,14.7298989 41.5303848,14.997898 C41.0042678,15.3135416 40.4095356,15.471361 39.7461705,15.471361 C38.8998082,15.471361 38.200712,15.2197433 37.6488609,14.7165004 C37.0970099,14.2132572 36.8210885,13.5000922 36.8210885,12.5769837 C36.8210885,11.3799205 37.2642782,10.5134026 38.1506712,9.97740412 C38.6367577,9.68558272 39.35158,9.47714199 40.2951595,9.35207569 L41.1272211,9.24487653 Z M52.40723,5.19810825 C53.3736843,5.19810825 54.1642778,5.46163688 54.7790341,5.98870205 C55.3937906,6.51576722 55.7011642,7.38972941 55.7011642,8.61061483 L55.7011642,15.1676301 L53.1964017,15.1676301 L53.1964017,9.24487653 C53.1964017,8.7327002 53.1306381,8.33964055 52.9991087,8.06568577 C52.7589249,7.56542052 52.3014386,7.31529166 51.6266362,7.31529166 C50.7974299,7.31529166 50.2284313,7.68155179 49.9196234,8.41408305 C49.7595009,8.80119305 49.6794408,9.29549534 49.6794408,9.89700474 L49.6794408,15.1676301 L47.243302,15.1676301 L47.243302,5.44823963 L49.6022392,5.44823963 L49.6022392,6.86862849 C49.9167657,6.36836325 50.2141318,6.00805856 50.4943463,5.78770364 C50.9975888,5.39463809 51.6352103,5.19810825 52.40723,5.19810825 Z M62.1517853,13.3720442 C62.8666183,13.3720442 63.4156018,13.1070267 63.7987524,12.5769837 C64.1819028,12.0469408 64.3734752,11.2935765 64.3734752,10.3168681 C64.3734752,9.34015979 64.1819028,8.5882843 63.7987524,8.06121914 C63.4156018,7.53415397 62.8666183,7.27062535 62.1517853,7.27062535 C61.4369522,7.27062535 60.886539,7.53415397 60.5005291,8.06121914 C60.1145194,8.5882843 59.9215173,9.34015979 59.9215173,10.3168681 C59.9215173,11.2935765 60.1145194,12.0469408 60.5005291,12.5769837 C60.886539,13.1070267 61.4369522,13.3720442 62.1517853,13.3720442 Z M66.9382832,10.3168681 C66.9382832,11.7461974 66.5437014,12.9685534 65.7545257,13.9839726 C64.9653501,14.9993921 63.7673079,15.507094 62.1603632,15.507094 C60.5534186,15.507094 59.3553763,14.9993921 58.5662007,13.9839726 C57.777025,12.9685534 57.3824431,11.7461974 57.3824431,10.3168681 C57.3824431,8.91136101 57.777025,7.69347161 58.5662007,6.66316344 C59.3553763,5.63285526 60.5534186,5.11770889 62.1603632,5.11770889 C63.7673079,5.11770889 64.9653501,5.63285526 65.7545257,6.66316344 C66.5437014,7.69347161 66.9382832,8.91136101 66.9382832,10.3168681 Z M75.130229,10.2990016 C75.130229,9.54860372 74.9658199,8.88457113 74.6369966,8.30688388 C74.3081734,7.72919664 73.774916,7.44035734 73.0372082,7.44035734 C72.1508153,7.44035734 71.5417867,7.87808287 71.2101042,8.75354704 C71.0385442,9.21807906 70.9527656,9.80766854 70.9527656,10.5223332 C70.9527656,11.6538855 71.2415538,12.448938 71.8191389,12.9075145 C72.1622588,13.1755137 72.5682778,13.3095113 73.0372082,13.3095113 C73.7177293,13.3095113 74.2366904,13.0355607 74.5941069,12.4876511 C74.9515234,11.9397415 75.130229,11.210199 75.130229,10.2990016 Z M73.7406005,5.21597479 C74.8328653,5.21597479 75.7578454,5.63583396 76.5155685,6.47556491 C77.2732915,7.31529586 77.6521473,8.54807386 77.6521473,10.1739359 C77.6521473,11.889131 77.2818694,13.1963522 76.5413023,14.0956384 C75.8007353,14.9949248 74.8471623,15.4445612 73.6805549,15.4445612 C72.9371284,15.4445612 72.3195219,15.2510092 71.8277168,14.8638992 C71.5589396,14.6494998 71.295885,14.3368386 71.0385451,13.9259065 L71.0385451,19 L68.6195622,19 L68.6195622,5.4303731 L70.9613435,5.4303731 L70.9613435,6.86862849 C71.2244021,6.44578524 71.5046125,6.11228009 71.8019829,5.868103 C72.3452561,5.43334868 72.9914554,5.21597479 73.7406005,5.21597479 Z M78.4584749,7.33315818 L78.4584749,5.51970573 L79.7623238,5.51970573 L79.7623238,2.80399369 L82.1813068,2.80399369 L82.1813068,5.51970573 L83.6996046,5.51970573 L83.6996046,7.33315818 L82.1813068,7.33315818 L82.1813068,12.4787178 C82.1813068,12.8777389 82.2299147,13.1263789 82.327132,13.2246454 C82.4243492,13.3229117 82.7217153,13.3720442 83.2192391,13.3720442 C83.2935818,13.3720442 83.3722123,13.3705554 83.4551329,13.3675776 C83.5380534,13.3645998 83.6195433,13.3601332 83.6996046,13.3541777 L83.6996046,15.2569628 L82.5415809,15.301629 C81.3864106,15.3433178 80.5972469,15.1348771 80.1740656,14.6763006 C79.8995697,14.3844792 79.7623238,13.9348428 79.7623238,13.3273778 L79.7623238,7.33315818 L78.4584749,7.33315818 Z M88.95789,7.27062535 C88.3917423,7.27062535 87.9528414,7.45524427 87.6411742,7.82448766 C87.3295069,8.19373107 87.1336456,8.6939888 87.0535844,9.32527589 L90.8536178,9.32527589 C90.8135871,8.65230003 90.6177258,8.14162026 90.266028,7.79322125 C89.9143301,7.44482223 89.4782885,7.27062535 88.95789,7.27062535 Z M88.95789,5.17130847 C89.7356285,5.17130847 90.4361543,5.32317242 91.0594887,5.62690489 C91.6828232,5.93063737 92.1974951,6.41005103 92.6035204,7.06516028 C92.9695148,7.64284753 93.2068359,8.31283558 93.3154905,9.07514453 C93.3783957,9.52180993 93.4041294,10.1649985 93.392692,11.0047294 L86.9935388,11.0047294 C87.0278507,11.9814377 87.3223574,12.6663144 87.877068,13.0593799 C88.2144691,13.303557 88.6204882,13.4256437 89.0951373,13.4256437 C89.5983797,13.4256437 90.0072581,13.2767575 90.3217847,12.9789806 C90.4933446,12.818181 90.644887,12.5948517 90.7764163,12.3089858 L93.2726007,12.3089858 C93.2096954,12.8866731 92.9209071,13.4732849 92.4062275,14.0688387 C91.6056144,15.0157693 90.484773,15.4892275 89.0436696,15.4892275 C87.8541875,15.4892275 86.8048283,15.0902124 85.8955607,14.2921703 C84.986293,13.4941282 84.531666,12.1958402 84.531666,10.3972675 C84.531666,8.71185006 84.941974,7.41951756 85.7626024,6.52023122 C86.5832306,5.62094489 87.648316,5.17130847 88.95789,5.17130847 Z M96.9439648,12.0588545 C96.9954328,12.5114754 97.106945,12.8330697 97.278505,13.0236469 C97.5815942,13.3631125 98.1420149,13.5328429 98.9597839,13.5328429 C99.4401518,13.5328429 99.8218668,13.4583998 100.104941,13.3095113 C100.388015,13.1606229 100.529549,12.9372935 100.529549,12.6395166 C100.529549,12.3536507 100.415178,12.1362768 100.186431,11.9873884 C99.9576847,11.8384999 99.1084758,11.5824156 97.6387791,11.2191277 C96.5808262,10.9451729 95.8345517,10.6027346 95.3999332,10.1918024 C94.9653147,9.7868258 94.7480087,9.20319178 94.7480087,8.44088283 C94.7480087,7.54159649 95.0868345,6.76887695 95.7644962,6.12270101 C96.4421579,5.47652507 97.395731,5.15344193 98.6252437,5.15344193 C99.7918512,5.15344193 100.742565,5.3961265 101.477413,5.8815029 C102.212262,6.3668793 102.634007,7.20510878 102.742661,8.39621651 L100.297945,8.39621651 C100.263633,8.06866189 100.174995,7.80959984 100.032028,7.61902261 C99.7632508,7.27360136 99.3057647,7.10089334 98.6595556,7.10089334 C98.1277197,7.10089334 97.7488639,7.18724735 97.5229767,7.35995798 C97.2970894,7.5326686 97.1841475,7.73515386 97.1841475,7.96741987 C97.1841475,8.25924127 97.3042377,8.47065972 97.5444216,8.60168158 C97.7846055,8.73865896 98.6338144,8.97389921 100.092074,9.30740937 C101.064247,9.54563092 101.793365,9.90593559 102.279452,10.3883342 C102.75982,10.8766884 103,11.4871219 103,12.2196532 C103,13.1844504 102.655456,13.9720586 101.966357,14.5825013 C101.277258,15.1929441 100.212172,15.4981609 98.7710689,15.4981609 C97.3013723,15.4981609 96.216272,15.1750777 95.5157355,14.5289018 C94.8151991,13.8827258 94.4649363,13.059385 94.4649363,12.0588545 L96.9439648,12.0588545 Z" id="Panoptes"></path>
                </g>
            </g>
        </g>
    </g>
</svg>