<?xml version="1.0" encoding="UTF-8"?>
<svg width="14px" height="18px" viewBox="0 0 14 18" version="1.1" xmlns="http://www.w3.org/2000/svg" xmlns:xlink="http://www.w3.org/1999/xlink">
    <!-- Generator: Sketch 49.2 (51160) - http://www.bohemiancoding.com/sketch -->
    <title>Group</title>
    <desc>Created with Sketch.</desc>
    <defs></defs>
    <g id="Page-3" stroke="none" stroke-width="1" fill="none" fill-rule="evenodd">
        <g id="Desktop-HD-Copy" transform="translate(-1342.000000, -11.000000)" fill="#FFFFFF" fill-rule="nonzero">
            <g id="Header">
                <g id="Group" transform="translate(1342.000000, 11.000000)">
                    <path d="M7,10.5 C9.65896119,10.5 11.8125,8.15068493 11.8125,5.25 C11.8125,2.34931507 9.65896119,0 7,0 C4.34103881,0 2.1875,2.34931507 2.1875,5.25 C2.1875,8.15068493 4.34103881,10.5 7,10.5 Z M7,1.79794521 C8.75799087,1.79794521 10.1863584,3.35616438 10.1863584,5.2739726 C10.1863584,7.19178082 8.75799087,8.75 7,8.75 C5.24200913,8.75 3.81364155,7.19178082 3.81364155,5.2739726 C3.81364155,3.35616438 5.24200913,1.79794521 7,1.79794521 Z" id="Shape"></path>
                    <path d="M10.6032787,11.375 L3.39672131,11.375 C1.53770492,11.375 0,12.992 0,15.001 L0,16.5935 C0,17.0835 0.390163934,17.5 0.849180328,17.5 C1.30819672,17.5 1.69836066,17.0835 1.69836066,16.5935 L1.69836066,15.001 C1.69836066,13.9965 2.4557377,13.188 3.39672131,13.188 L10.6032787,13.125 C11.5442623,13.125 12.25,13.8705 12.25,14.875 L12.3016393,16.5935 C12.3016393,17.0835 12.6918033,17.5 13.1508197,17.5 C13.6098361,17.5 14,17.0835 14,16.5935 L14,15.001 C14,12.992 12.4852459,11.375 10.6032787,11.375 Z" id="Shape"></path>
                </g>
            </g>
        </g>
    </g>
</svg>